<?xml version="1.0" encoding="UTF-8"?>
<svg id="Calque_2" xmlns="http://www.w3.org/2000/svg" viewBox="0 0 1051.6 359.63">
  <defs>
    <style>
      .cls-1 {
        fill: none;
      }

      .cls-2 {
        fill: #1e3434;
      }

      .cls-3 {
        fill: #09e387;
      }
    </style>
  </defs>
  <g id="Calque_1-2" data-name="Calque_1">
    <rect class="cls-1" width="1051.6" height="359.63"/>
    <g>
      <circle class="cls-3" cx="138.77" cy="258.91" r="15.23"/>
      <circle class="cls-3" cx="214.67" cy="258.58" r="14.56"/>
      <path class="cls-3" d="M167.57,134.3s-21.46-6.63-24.14-17.48-4.66-33.13-4.66-33.13h14.4l23.14,16.25,30.14-16.58,8.22.34v26.04l-17.66,19.51-29.44,5.05Z"/>
      <g>
        <path class="cls-2" d="M265.39,107.68c-3.96,14.57-10.27,39.78-14.96,59.78-2.99,12.72-5.42,25.56-9.05,38.13-2.67,9.25-5.34,11.75-14.87,11.99-8.66.22-17.32.19-25.98.19-25.98-.01-51.97-.15-77.95-.04-7.09.03-11.59-3.43-13.41-10.42-3.68-14.15-7.6-28.24-10.67-42.55-1.78-8.28-4.25-16.44-4.84-24.93-.47-6.79,1.16-8.72,7.81-9.39,3.29-.33,6.64-.14,9.97-.14,9.92-.01,19.85,0,29.88,0-.1-2.06-1.73-3.45-2.97-4.82-6.28-6.96-8.23-15.46-8.82-24.38-.35-5.31-.19-10.66-.01-15.98.31-9.45,5.41-13.13,14.57-10.78,11.95,3.06,22.98,7.79,31.37,17.29,1.34,1.51,2.44,2.05,3.91.09,8.97-11.89,22.49-15.09,35.84-18.42,4.24-1.06,9.69,2.77,10.1,6.94.93,9.51,2.06,19.03-.76,28.53-2.33,7.83-5.76,14.99-12.07,21.75,7.33,0,13.42-.1,19.5.02,12.06.24,11.9.25,14.72-11.54,1.65-6.89,3.84-10.73,5.57-15.69,3.02-8.64,16.28-7.24,13.13,4.37ZM167.38,173.7c.06,0,.13,0,.19,0,0-7.31,0-14.63,0-21.94q0-6.89-7.09-7.01c-1.66-.03-3.32-.15-4.98-.18-7.71-.13-6.98-1.7-6.9,6.49.14,13.79,2.28,27.48,1.83,41.31-.09,2.73.71,5.49,1.14,8.23.32,2.03,1.27,3.05,3.62,3.11,3,.08,5.88-.77,8.78-.79,3-.02,3.52-1.13,3.47-3.79-.15-8.48-.06-16.96-.06-25.44ZM182.65,174.75c-.08,0-.15,0-.23,0,0,7.98.09,15.97-.05,23.94-.06,3.24,1.05,4.53,4.37,4.12,2.29-.28,4.66-.23,6.97-.04,2.64.22,3.68-.4,3.89-3.41.55-7.93,1.67-15.82,2.52-23.73.99-9.22,1.95-18.45,2.9-27.68.35-3.35-.45-4.9-4.45-3.95-3.33.8-6.97.86-10.4.51-4.31-.44-5.57,1.48-5.55,5.29.05,8.31.01,16.63.01,24.94ZM229.49,145.16c-1-.06-1.99-.12-2.99-.19-6.94-.46-6.98-.47-8.3,6.55-2.58,13.72-3.5,27.64-4.87,41.5-.93,9.43-.56,9.29,8.73,9.71,3.53.16,4.8-.87,5.57-4.35,3.2-14.33,6.78-28.58,10.22-42.85.77-3.19,3.19-7.45,1.97-9.29-1.81-2.7-6.45-.63-9.85-1.05-.16-.02-.33-.02-.5-.03ZM119.78,145.64s0-.1,0-.15c-1.66,0-3.36.21-4.98-.04-3.82-.59-4.45.88-3.6,4.36,3.41,14,6.46,28.1,9.95,42.08,2.47,9.88,2.69,9.82,12.44,10.49.16.01.33.05.49.09,1.85.44,2.28-.31,2.13-2.11-.97-11.65-1.69-23.32-2.82-34.96-.55-5.61-.92-11.2-.91-16.84,0-2.83-.93-4.27-4.26-3.53-2.72.61-5.62.43-8.43.61ZM183.64,109.79c0,5.64.02,11.28,0,16.92,0,1.89.29,3.49,2.74,2.87,8.41-2.12,16.1-5.26,19.94-13.99,3.03-6.88,3.74-14.06,4.38-21.51.48-5.56-1.03-4.64-4.38-3.33-7.01,2.74-13.28,6.77-19.39,11.06-2.69,1.89-4.52,4.41-3.28,7.98ZM168.32,129.23c-.44-7.12-.52-14.24.28-21.36.25-2.23-.35-4.27-1.89-6-6.17-6.95-14.45-9.9-22.98-12.9-2.67,23.71,13.02,40.86,24.59,40.26Z"/>
        <path class="cls-2" d="M108.79,257.18c.71-12.85,13.33-26.09,29.68-25.36,14.21.63,27.01,13.8,25.85,27.5-1.38,16.41-13.8,28.39-31.83,27-12.49-.96-23.87-13.75-23.71-29.14ZM136.84,270.51c5.62,0,11.65-6.51,11.72-12.64.06-5.69-6.01-11.19-12.3-11.12-6.74.07-11.84,5-11.87,11.48-.04,6.55,5.78,12.28,12.46,12.29Z"/>
        <path class="cls-2" d="M211.86,286.48c-13.37.33-27.5-14.95-26-30.3,1.03-10.53,12.74-25.44,27.58-24.54,13.2.8,27.59,12.8,26.71,27.33-.8,13.17-11.57,28.06-28.28,27.51ZM201.12,258.92c.09,6.05,6.56,12.4,12.61,12.37,5.35-.02,10.95-6.48,10.99-12.68.05-6.85-5.32-11.63-12.85-11.45-6.42.16-10.85,5-10.75,11.76Z"/>
      </g>
    </g>
    <g>
      <path class="cls-2" d="M404.36,200.26c-.75.54-1.74,1.02-2.98,1.45-1.23.43-2.6.64-4.1.64-1.72,0-3.24-.27-4.58-.8-1.34-.54-2.28-1.39-2.81-2.57-5.79-12.01-10.77-23-14.96-32.97-4.18-9.97-7.56-18.22-10.13-24.77h-.64c-.32,8.04-.67,15.52-1.05,22.43-.38,6.92-.78,13.67-1.21,20.26-.43,6.59-.86,13.27-1.29,20.02-.43,6.75-.86,13.99-1.29,21.71-.64.21-1.48.43-2.49.64-1.02.21-2.12.32-3.3.32-2.36,0-4.02-.48-4.98-1.45-.97-.96-1.45-2.36-1.45-4.18,0-1.07.08-3.38.24-6.91.16-3.54.4-7.83.72-12.87.32-5.04.67-10.61,1.04-16.72.37-6.11.8-12.33,1.29-18.66.48-6.32.96-12.54,1.45-18.65.48-6.11.94-11.68,1.37-16.72.86-.75,2.09-1.45,3.7-2.09,1.61-.64,3.43-.96,5.47-.96,4.93,0,8.36,1.98,10.29,5.95,2.04,4.18,4.1,8.6,6.19,13.27,2.09,4.66,4.18,9.41,6.27,14.23,2.09,4.82,4.13,9.6,6.11,14.31,1.98,4.72,3.88,9.22,5.71,13.51h.64c2.36-5.68,4.72-11.28,7.08-16.8,2.36-5.52,4.66-10.86,6.92-16,2.25-5.15,4.39-9.97,6.43-14.47,2.04-4.5,3.86-8.63,5.47-12.38.96-.54,2.2-.94,3.7-1.21,1.5-.27,2.9-.4,4.18-.4,5.04,0,7.93,1.72,8.68,5.15.43,1.93.91,5.12,1.45,9.57.54,4.45,1.07,9.57,1.61,15.36.54,5.79,1.04,12.01,1.53,18.66.48,6.65.94,13.05,1.37,19.22.43,6.17.8,11.85,1.13,17.05.32,5.2.59,9.3.8,12.3-1.93,1.29-4.18,1.93-6.75,1.93-1.61,0-3.03-.4-4.26-1.21-1.23-.8-1.96-2.28-2.17-4.42-.54-7.82-1.02-15.6-1.45-23.32-.43-7.72-.83-15.06-1.21-22.03-.38-6.97-.72-13.37-1.04-19.22-.32-5.84-.59-10.8-.8-14.88h-.64c-1.18,3-2.55,6.38-4.1,10.13-1.56,3.75-3.38,7.99-5.47,12.7-2.09,4.72-4.42,10.05-7,16-2.57,5.95-5.47,12.57-8.68,19.86Z"/>
      <path class="cls-2" d="M484.6,209.1c-1.39-2.57-3-5.84-4.82-9.81-1.82-3.97-3.73-8.42-5.71-13.35-1.98-4.93-4-10.16-6.03-15.68-2.04-5.52-3.97-11.12-5.79-16.8.75-1.07,1.74-1.93,2.98-2.57,1.23-.64,2.55-.96,3.94-.96,1.82,0,3.3.48,4.42,1.45,1.13.96,2.12,2.57,2.98,4.82,3.22,9.11,6.57,18.07,10.05,26.86,3.48,8.79,7.42,18.01,11.82,27.66h.64c1.71-3.32,3.48-7.37,5.31-12.14,1.82-4.77,3.62-9.83,5.39-15.2,1.77-5.36,3.43-10.8,4.98-16.32,1.55-5.52,2.92-10.8,4.1-15.84.75-.32,1.55-.62,2.41-.88.86-.27,1.87-.4,3.06-.4,1.82,0,3.32.46,4.5,1.37,1.18.91,1.77,2.28,1.77,4.1,0,2.15-.75,6.06-2.25,11.74-1.5,5.68-3.46,12.06-5.87,19.14-2.41,7.08-5.17,14.34-8.28,21.79-3.11,7.45-6.27,14.07-9.49,19.86-5.04,9.11-9.57,16.11-13.59,20.99-4.02,4.88-7.75,7.32-11.18,7.32-2.47,0-4.37-.64-5.71-1.93-1.34-1.29-2.17-2.79-2.49-4.5,1.71-1.5,3.64-3.43,5.79-5.79,2.14-2.36,4.29-4.91,6.43-7.64,2.14-2.73,4.18-5.55,6.11-8.44,1.93-2.89,3.54-5.68,4.82-8.36-1.82-.54-3.51-1.47-5.07-2.81-1.56-1.34-3.3-3.88-5.23-7.64Z"/>
      <path class="cls-2" d="M563.56,225.34c-.64.22-1.5.45-2.57.72-1.07.27-2.25.4-3.54.4-4.72,0-7.08-1.98-7.08-5.95v-85.55c0-1.71.43-3.03,1.29-3.94.86-.91,2.2-1.63,4.02-2.17,3.11-.96,6.94-1.66,11.5-2.09,4.56-.43,8.98-.64,13.27-.64,13.51,0,23.56,2.71,30.15,8.12,6.59,5.42,9.89,13.11,9.89,23.08,0,7.4-1.91,13.62-5.71,18.65-3.81,5.04-9.57,8.63-17.29,10.77,2.68,3.43,5.36,6.86,8.04,10.29,2.68,3.43,5.23,6.67,7.64,9.73s4.56,5.82,6.43,8.28c1.87,2.47,3.35,4.4,4.42,5.79-.43,1.82-1.37,3.27-2.81,4.34s-2.92,1.61-4.42,1.61c-1.82,0-3.32-.43-4.5-1.29-1.18-.86-2.41-2.2-3.7-4.02l-23.48-32.81h-21.55v36.67ZM581.9,177.74c7.93,0,14.15-1.71,18.65-5.15,4.5-3.43,6.75-8.52,6.75-15.28s-2.36-11.82-7.08-15.2c-4.72-3.38-11.47-5.07-20.26-5.07-2.89,0-5.82.14-8.76.4-2.95.27-5.55.62-7.8,1.05v39.24h18.49Z"/>
      <path class="cls-2" d="M650.4,196.07c2.89,14.05,12.11,21.07,27.66,21.07,4.5,0,8.58-.75,12.22-2.25,3.64-1.5,6.54-3.11,8.68-4.82,2.57,1.5,3.86,3.54,3.86,6.11,0,1.5-.67,2.95-2.01,4.34-1.34,1.39-3.16,2.63-5.47,3.7-2.31,1.07-4.99,1.93-8.04,2.57-3.06.64-6.35.96-9.89.96-12.44,0-22.27-3.38-29.51-10.13-7.24-6.75-10.85-16.62-10.85-29.59,0-6.11.88-11.55,2.65-16.32,1.77-4.77,4.23-8.82,7.4-12.14,3.16-3.32,6.94-5.87,11.34-7.64,4.39-1.77,9.17-2.65,14.31-2.65,4.82,0,9.27.8,13.35,2.41,4.07,1.61,7.58,3.89,10.53,6.83,2.95,2.95,5.25,6.43,6.92,10.45,1.66,4.02,2.49,8.44,2.49,13.27,0,2.36-.54,4.05-1.61,5.07-1.07,1.02-2.57,1.64-4.5,1.85l-49.53,6.92ZM672.6,159.73c-6.54,0-11.96,2.28-16.24,6.83-4.29,4.56-6.54,11.07-6.75,19.54l44.22-6.11c-.54-5.9-2.6-10.75-6.19-14.55-3.59-3.8-8.6-5.71-15.04-5.71Z"/>
      <path class="cls-2" d="M778.09,205.88c0,6.86-2.52,12.22-7.56,16.08-5.04,3.86-12.33,5.79-21.87,5.79-4.08,0-7.83-.35-11.26-1.05-3.43-.7-6.35-1.61-8.76-2.73s-4.29-2.41-5.63-3.86c-1.34-1.45-2.01-2.92-2.01-4.42,0-1.29.35-2.52,1.04-3.7.7-1.18,1.74-2.2,3.14-3.06,2.9,2.15,6.27,4.05,10.13,5.71,3.86,1.66,8.25,2.49,13.19,2.49,11.15,0,16.72-3.75,16.72-11.26,0-6.11-3.7-10.08-11.1-11.9l-13.35-3.54c-6.54-1.71-11.31-4.21-14.31-7.48-3-3.27-4.5-7.48-4.5-12.62,0-2.79.56-5.47,1.69-8.04,1.13-2.57,2.87-4.83,5.23-6.75,2.36-1.93,5.28-3.46,8.76-4.58,3.48-1.13,7.58-1.69,12.3-1.69,7.5,0,13.56,1.1,18.17,3.3,4.61,2.2,6.92,4.74,6.92,7.64,0,1.39-.35,2.63-1.04,3.7-.7,1.07-1.64,1.88-2.81,2.41-1.93-1.29-4.66-2.68-8.2-4.18-3.54-1.5-7.72-2.25-12.54-2.25s-8.66.91-11.5,2.73c-2.84,1.82-4.26,4.4-4.26,7.72,0,2.47.8,4.56,2.41,6.27,1.61,1.72,4.29,3,8.04,3.86l11.1,2.73c7.29,1.82,12.76,4.53,16.4,8.12,3.64,3.59,5.47,8.44,5.47,14.55Z"/>
      <path class="cls-2" d="M807.51,196.07c2.89,14.05,12.11,21.07,27.66,21.07,4.5,0,8.58-.75,12.22-2.25,3.64-1.5,6.54-3.11,8.68-4.82,2.57,1.5,3.86,3.54,3.86,6.11,0,1.5-.67,2.95-2.01,4.34-1.34,1.39-3.16,2.63-5.47,3.7-2.31,1.07-4.99,1.93-8.04,2.57-3.06.64-6.35.96-9.89.96-12.44,0-22.27-3.38-29.51-10.13-7.24-6.75-10.85-16.62-10.85-29.59,0-6.11.88-11.55,2.65-16.32,1.77-4.77,4.23-8.82,7.4-12.14,3.16-3.32,6.94-5.87,11.34-7.64,4.39-1.77,9.17-2.65,14.31-2.65,4.82,0,9.27.8,13.35,2.41,4.07,1.61,7.58,3.89,10.53,6.83,2.95,2.95,5.25,6.43,6.92,10.45,1.66,4.02,2.49,8.44,2.49,13.27,0,2.36-.54,4.05-1.61,5.07-1.07,1.02-2.57,1.64-4.5,1.85l-49.53,6.92ZM829.71,159.73c-6.54,0-11.96,2.28-16.24,6.83-4.29,4.56-6.54,11.07-6.75,19.54l44.22-6.11c-.54-5.9-2.6-10.75-6.19-14.55-3.59-3.8-8.6-5.71-15.04-5.71Z"/>
      <path class="cls-2" d="M893.55,226.07c-1.07.27-2.25.4-3.54.4-4.61,0-6.92-1.93-6.92-5.79v-99.22c.54-.21,1.37-.45,2.49-.72,1.13-.27,2.28-.4,3.46-.4,4.61,0,6.92,1.93,6.92,5.79v99.22c-.54.22-1.34.45-2.41.72Z"/>
      <path class="cls-2" d="M933.59,226.07c-1.07.27-2.25.4-3.54.4-4.61,0-6.92-1.93-6.92-5.79v-99.22c.54-.21,1.37-.45,2.49-.72,1.13-.27,2.28-.4,3.46-.4,4.61,0,6.92,1.93,6.92,5.79v99.22c-.54.22-1.34.45-2.41.72Z"/>
    </g>
  </g>
</svg>